<?xml version="1.0" encoding="UTF-8" standalone="no"?>
<svg width="37px" height="35px" viewBox="0 0 37 35" version="1.1" xmlns="http://www.w3.org/2000/svg" xmlns:xlink="http://www.w3.org/1999/xlink">
    <!-- Generator: Sketch 46.2 (44496) - http://www.bohemiancoding.com/sketch -->
    <title>Page 1 Copy</title>
    <desc>Created with Sketch.</desc>
    <defs>
        <polygon id="path-1" points="18.4999807 34.9415926 36.9002243 34.9415926 36.9002243 0.0419173074 0.0997371098 0.0419173074 0.0997371098 34.9415926 18.4999807 34.9415926"></polygon>
    </defs>
    <g id="Page-1" stroke="none" stroke-width="1" fill="none" fill-rule="evenodd">
        <g id="App" transform="translate(-592.000000, -192.000000)">
            <g id="Page-1-Copy" transform="translate(592.000000, 192.000000)">
                <mask id="mask-2" fill="white">
                    <use xlink:href="#path-1"></use>
                </mask>
                <g id="Clip-2"></g>
                <path d="M36.8313116,13.2852596 L29.422964,0.435391026 C29.2162152,0.0584455128 28.7338165,-0.0786153846 28.3547921,0.161246795 L15.5021855,7.56278205 C15.2265265,7.73410256 15.0542396,8.07676603 15.1231544,8.38516987 L19.4992414,29.6988417 L18.8445512,30.4527013 C17.7419151,31.6862897 16.8460233,32.3373503 15.088697,32.3373503 C13.1246265,32.3373503 12.1942773,31.3093599 10.7470674,29.4589772 C8.9897411,27.2659311 6.81892628,24.5246234 1.54694744,24.5246234 L1.40911793,24.5246234 C0.685512988,24.5246234 0.0997371098,25.1071513 0.0997371098,25.8267446 L0.0997371098,25.8267446 L0.0997371098,25.8267446 C0.0997371098,26.5463378 0.685512988,27.1288657 1.40911793,27.1288657 L1.54694744,27.1288657 C5.57846067,27.1288657 7.0945853,29.0477811 8.71408207,31.0694955 C10.161292,32.8856119 11.7807887,34.9415926 15.1231544,34.9415926 C17.9831168,34.9415926 19.5681562,33.6052029 20.8430701,32.1660163 L25.5637512,26.8547327 L25.5637512,26.8547327 L36.7279372,14.2104487 C36.934686,13.9363269 37.0035872,13.5593814 36.8313116,13.2852596 Z" id="Fill-1" fill="#FF7B00" mask="url(#mask-2)"></path>
            </g>
        </g>
    </g>
</svg>