<svg version="1.1" id="Layer_1" xmlns="http://www.w3.org/2000/svg" xmlns:xlink="http://www.w3.org/1999/xlink" x="0px" y="0px" viewBox="0 0 1210.656 2132.13" style="enable-background:new 0 0 1210.656 2132.13;" xml:space="preserve">
	<g class="left-arm">
		<path style="fill:none;stroke:#F47B20;stroke-width:68;stroke-miterlimit:10;" d="M569.237,1028.235 c0,0-183.177,125.976-229.801,443.282c-34.982,238.07-1.861,318.118-68.039,440.226"/>
		<path style="fill:none;stroke:#DC3A26;stroke-width:68;stroke-miterlimit:10;" d="M569.237,1028.235 c0,0-183.177,125.976-229.801,443.282c-2.447,16.654-4.561,32.535-6.399,47.712"/>
		<path style="fill:none;stroke:#F47B20;stroke-width:24;stroke-linecap:round;stroke-miterlimit:10;" d="M276.467,1940.945 c7.657-4.281,24.41-34.972,28.723-47.6"/>
		<path style="fill:none;stroke:#F47B20;stroke-width:24;stroke-linecap:round;stroke-miterlimit:10;" d="M255.665,1930.927 c7.657-4.281,24.41-34.972,28.723-47.6"/>
		<path style="fill:none;stroke:#F47B20;stroke-width:24;stroke-linecap:round;stroke-miterlimit:10;" d="M237.549,1919.529 c7.657-4.281,24.41-34.972,28.723-47.6"/>
		<path style="fill:none;stroke:#3B3F3D;stroke-width:7.2;stroke-linecap:round;stroke-linejoin:round;stroke-miterlimit:10;" d=" M245.756,1926.969c0,0,13.888-15.595,20.516-31.24"/>
		<path style="fill:none;stroke:#3B3F3D;stroke-width:7.2;stroke-linecap:round;stroke-linejoin:round;stroke-miterlimit:10;" d="M266.272,1936.839c0,0,15.511-15.006,20.446-29.712"/>
		<path style="fill:#E4603C;" d="M363.319,1551.315l-73.453-7.738c-6.84-0.721-11.8-6.849-11.08-13.689l3.823-36.288 c0.721-6.84,6.849-11.8,13.689-11.08l73.453,7.738c6.84,0.721,11.8,6.849,11.08,13.689l-3.823,36.288 C376.287,1547.075,370.159,1552.036,363.319,1551.315z"/>
	</g>
	<g class="legs">
	<path style="fill:#36819F;" d="M473.638,1543.793v131.205c0-25.036,50.844-45.331,113.563-45.331s113.563,20.295,113.563,45.331 v-131.205H473.638z"/>
		<ellipse style="fill:#E6E6E5;" cx="562.359" cy="2110.144" rx="306.694" ry="21.986"/>
		<g class="right-leg">
			<path style="fill:#36819F;" d="M731.312,1533.461c0.226,1.191,0.327,1.896,0.474,2.782l0.38,2.458l0.695,4.774 c0.459,3.167,0.842,6.241,1.25,9.353c0.772,6.178,1.485,12.315,2.132,18.429c1.312,12.229,2.378,24.384,3.298,36.523 c1.832,24.271,3.047,48.452,3.719,72.592c0.671,24.138,0.797,48.229,0.453,72.272c-0.367,24.042-1.099,48.035-2.449,71.97 c-1.319,23.934-2.981,47.812-5.25,71.613c-1.019,11.904-2.374,23.782-3.616,35.649c-0.629,5.933-1.408,11.855-2.104,17.778 c-0.737,5.92-1.378,11.843-2.223,17.749c-6.253,47.282-14.21,94.216-23.918,140.669l-16.569-2.367 c3.527-46.902,5.253-93.819,5.278-140.614c0.067-5.845-0.071-11.7-0.112-17.545c-0.082-5.847-0.081-11.686-0.229-17.529 c-0.314-11.686-0.514-23.354-1.048-35.018c-0.836-23.321-2.272-46.597-4.037-69.802c-1.734-23.208-4.07-46.342-6.749-69.385 c-2.7-23.041-5.847-45.99-9.5-68.797c-3.652-22.805-7.812-45.473-12.507-67.892c-2.35-11.205-4.828-22.356-7.499-33.36 c-1.327-5.505-2.705-10.967-4.116-16.372c-0.719-2.672-1.426-5.39-2.165-7.993l-1.101-3.881l-0.548-1.863 c-0.171-0.552-0.382-1.287-0.488-1.531L731.312,1533.461z"/>
			<polygon style="fill:#36819F;" points="687.038,2110.275 778.169,2110.275 689.298,2082.808 	"/>
			<path style="fill:#202120;" d="M663.129,1641.292c2.919,15.157,5.605,30.41,8.058,45.725c3.654,22.807,6.801,45.756,9.501,68.797 c0.492,4.236,0.969,8.476,1.436,12.718l0.047,0.019l13.96-106.398C690.114,1654.01,678.529,1646.823,663.129,1641.292z"/>
		</g>
		<g class="left-leg">
			<path style="fill:#36819F;" d="M512.773,1554.125c-0.106,0.244-0.316,0.979-0.488,1.531l-0.548,1.863l-1.101,3.881 c-0.739,2.603-1.446,5.321-2.164,7.993c-1.411,5.404-2.79,10.866-4.116,16.372c-2.671,11.004-5.149,22.156-7.499,33.36 c-4.694,22.418-8.854,45.087-12.507,67.892c-3.654,22.808-6.801,45.756-9.501,68.797c-2.678,23.042-5.014,46.177-6.748,69.385 c-1.765,23.206-3.201,46.481-4.037,69.802c-0.534,11.664-0.734,23.332-1.048,35.018c-0.149,5.843-0.148,11.683-0.229,17.529 c-0.041,5.845-0.179,11.7-0.112,17.545c0.025,46.795,1.751,93.711,5.278,140.614l-16.569,2.367 c-9.709-46.453-17.666-93.387-23.918-140.669c-0.845-5.906-1.486-11.829-2.223-17.749c-0.697-5.923-1.476-11.845-2.105-17.778 c-1.242-11.867-2.597-23.745-3.616-35.649c-2.269-23.802-3.932-47.679-5.25-71.613c-1.35-23.935-2.082-47.928-2.449-71.97 c-0.345-24.042-0.219-48.134,0.453-72.272c0.672-24.14,1.887-48.321,3.719-72.592c0.92-12.139,1.986-24.294,3.298-36.523 c0.647-6.114,1.36-12.251,2.132-18.429c0.409-3.112,0.792-6.186,1.251-9.353l0.695-4.774l0.38-2.458 c0.147-0.886,0.248-1.591,0.474-2.782L512.773,1554.125z"/>
			<polygon style="fill:#36819F;" points="468.499,2110.275 377.368,2110.275 466.239,2082.808 	"/>
		</g>
	</g>
	<g class="right-arm">
		<path style="fill:none;stroke:#202120;stroke-width:68;stroke-miterlimit:10;" d="M612.715,1039.893 c0,0,52.401,55.756,109.975,150.475c46.987,77.302,75.703,165.038,181.565,165.038"/>
		<path style="fill:none;stroke:#F47B20;stroke-width:68;stroke-miterlimit:10;" d="M904.255,1355.406 c105.862,0,138.408-97.289,137.479-184.578c-0.875-82.267,11.447-201.651,57.955-278.083"/>
		<path style="fill:#36819F;" d="M935.919,1324.078c-7.499,20.902-7.764,45.82-1.266,66.993c1.615,6.116-4.455,10.85-11.34,10.418 c-12.197-0.765-24.392-1.553-36.592-2.283c-7.095-0.409-13.264-5.735-14.089-11.863c-2.183-23.292-0.82-45.635,5.922-67.979 c1.459-5.647,7.148-10.477,14.024-10.04c11.976,0.754,23.954,1.442,35.924,2.286 C935.128,1312.12,938.619,1317.663,935.919,1324.078z"/>
		<g>
			<path style="fill:none;stroke:#F47B20;stroke-width:24;stroke-linecap:round;stroke-miterlimit:10;" d="M1066.921,909.785 c0,0,13.407-35.122,28.657-47.6"/>
			<path style="fill:none;stroke:#F47B20;stroke-width:24;stroke-linecap:round;stroke-miterlimit:10;" d="M1086.163,919.927 c0,0,13.407-35.122,28.657-47.6"/>
			<path style="fill:none;stroke:#F47B20;stroke-width:24;stroke-linecap:round;stroke-miterlimit:10;" d="M1102.509,934.454 c0,0,15.005-35.122,30.255-47.6"/>
			<path style="fill:none;stroke:#3B3F3D;stroke-width:7.2;stroke-linecap:round;stroke-linejoin:round;stroke-miterlimit:10;" d=" M1081.25,907.286c0,0,7.093-19.75,23.664-40.088"/>
			<path style="fill:none;stroke:#3B3F3D;stroke-width:7.2;stroke-linecap:round;stroke-linejoin:round;stroke-miterlimit:10;" d=" M1099.688,915.948c0,0,8.625-22.216,22.642-33.42"/>
		</g>
		<g>
			<path style="fill:none;stroke:#3B3F3D;stroke-width:7.2;stroke-linecap:round;stroke-linejoin:round;stroke-miterlimit:10;" d=" M1125.919,954.278c0,0,18.385-8.625,40.408-51.59"/>
			<path style="fill:none;stroke:#3B3F3D;stroke-width:7.2;stroke-linecap:round;stroke-linejoin:round;stroke-miterlimit:10;" d=" M1140.847,986.552c0,0,33.104-12.89,66.209-88.884"/>
			<path style="fill:none;stroke:#3B3F3D;stroke-width:7.2;stroke-linecap:round;stroke-linejoin:round;stroke-miterlimit:10;" d=" M1009.543,919.927c0,0,21.837-55.529,57.379-81.21"/>
		</g>
	</g>
	<path style="fill:#B8E0D8;" d="M728.736,1555.604l-20.529-245.807l-53.682-246.859h-66.132h-66.132l-52.524,246.859l-21.298,241.455 c-1.376,1.755-2.099,3.561-2.099,5.404c0,17.307,63.236,31.337,141.242,31.337s141.242-14.03,141.242-31.337 C728.824,1556.304,728.788,1555.953,728.736,1555.604z"/>
	<g class="face">
		<g class="left-ear">
			<path style="fill:#F47B20;" d="M1148.727,573.306l0.049-7.815h-0.097l-0.474-76.072c0,0-15.396,57.004-119.489,57.004v53.766
				c104.093,0,119.489,57.004,119.489,57.004l0.474-76.072h0.097L1148.727,573.306z"/>
			<path style="fill:#E86C24;" d="M1028.715,579.132v21.057c104.093,0,119.489,57.004,119.489,57.004l0.156-25.03
				C1140.37,616.618,1112.663,580.004,1028.715,579.132z"/>
			<ellipse style="fill:#F47B20;" cx="1158.381" cy="572.196" rx="21.01" ry="97.133"/>
			<ellipse style="fill:#202120;" cx="1158.381" cy="572.196" rx="13.493" ry="74.598"/>
		</g>
		<g class="right-ear">
			<path style="fill:#E86C24;" d="M30.665,573.306l-0.049-7.815h0.097l0.474-76.072c0,0,15.396,57.004,119.489,57.004v53.766
				c-104.093,0-119.489,57.004-119.489,57.004l-0.474-76.072h-0.097L30.665,573.306z"/>
			<path style="fill:#E86C24;" d="M150.676,579.132v21.057c-104.093,0-119.489,57.004-119.489,57.004l-0.156-25.03
				C39.021,616.618,66.728,580.004,150.676,579.132z"/>
			<ellipse style="fill:#E86C24;" cx="21.01" cy="572.196" rx="21.01" ry="97.133"/>
			<ellipse style="fill:#202120;" cx="21.01" cy="572.196" rx="13.493" ry="74.598"/>
		</g>
		<g class="eyes">
			<ellipse style="fill:#F47B20;" cx="589.696" cy="553.995" rx="498.065" ry="416.461"/>
			<ellipse style="fill:#F47B20;" cx="589.696" cy="553.995" rx="498.065" ry="416.461"/>
		</g>
		<path style="fill:#E86C24;" d="M641.732,905.881c-275.074,0-498.065-186.456-498.065-416.461 c0-72.126,21.932-139.968,60.518-199.123C133.844,362.109,91.63,453.929,91.63,553.995c0,230.005,222.992,416.461,498.065,416.461 c188.815,0,353.086-87.854,437.548-217.339C935.904,846.369,797.132,905.881,641.732,905.881z"/>
		<circle style="fill:#202120;" cx="426.593" cy="541.059" r="32.873"/>
		<circle style="fill:#202120;" cx="854.341" cy="541.059" r="32.873"/>
		<path style="fill:#E86C24;" d="M508.703,945.617v6.831c17.209,0,31.16,14.583,31.16,32.572v94.313 c0,36.503,22.74,66.095,50.791,66.095c28.051,0,50.791-29.592,50.791-66.095v-87.331h0.018 c0.368-16.972,13.147-30.735,29.226-31.755v-14.629H508.703z"/>
		<g class="pimples"> 
			<defs>
				<ellipse id="SVGID_6_" cx="589.696" cy="553.995" rx="498.065" ry="416.461"/>
			</defs>
			<clipPath id="SVGID_7_">
				<use xlink:href="#SVGID_6_"  style="overflow:visible;"/>
			</clipPath>
			<circle style="clip-path:url(#SVGID_7_);fill:#E86C24;" cx="818.398" cy="217.486" r="68.815"/>
			<circle style="clip-path:url(#SVGID_7_);fill:#E86C24;" cx="887.213" cy="344.96" r="40.656"/>
			<circle style="clip-path:url(#SVGID_7_);fill:#E86C24;" cx="997.689" cy="287.202" r="57.758"/>
		</g>
		<g class="mouth">
			<path style="fill:#202120;" d="M764.449,639.65c-0.937-33.377-41.313-49.723-65.7-26.916 c-10.797,10.097-25.301,16.278-41.25,16.278c-15.949,0-30.454-6.181-41.25-16.278c-24.387-22.807-64.763-6.461-65.7,26.916 c-0.016,0.572-0.024,1.146-0.024,1.721c0,44.307,47.894,80.225,106.974,80.225s106.974-35.918,106.974-80.225 C764.473,640.796,764.465,640.222,764.449,639.65z"/>
			<path style="fill:#DC3B26;" d="M582.136,698.304c19.336,14.396,45.963,23.293,75.363,23.293c29.159,0,55.587-8.753,74.883-22.942 c-13.069-17.305-41.847-29.325-75.255-29.325C623.944,669.329,595.328,681.188,582.136,698.304z"/>
		</g>
		<g class="glasses">
			<path style="fill:none;stroke:#202120;stroke-width:16.5613;stroke-miterlimit:10;" d="M1076.197,676.697 c-81.561,14.48-163.123,14.48-244.684,0c-19.755-3.709-39.818-23.772-43.528-43.528c-14.48-81.561-14.48-163.123,0-244.684 c3.709-19.755,23.773-39.818,43.528-43.528c81.561-14.479,163.123-14.479,244.684,0c19.755,3.71,39.819,23.771,43.528,43.528 c14.479,81.562,14.479,163.123,0,244.684C1116.015,652.924,1095.952,672.989,1076.197,676.697z"/>
			<path style="fill:none;stroke:#202120;stroke-width:16.5613;stroke-miterlimit:10;" d="M481.27,676.697 c-81.561,14.48-163.123,14.48-244.684,0c-19.755-3.709-39.818-23.772-43.528-43.528c-14.48-81.561-14.48-163.123,0-244.684 c3.709-19.755,23.772-39.818,43.528-43.528c81.561-14.479,163.123-14.479,244.684,0c19.755,3.71,39.819,23.771,43.528,43.528 c14.479,81.562,14.479,163.123,0,244.684C521.088,652.924,501.025,672.989,481.27,676.697z"/>
		</g>
		<g class="jopo">
			<path style="fill:#F47B20;" d="M846.753,66.635c0-34.813-28.221-63.035-63.035-63.035c-24.908,0-46.435,14.45-56.673,35.421
				l-0.003-0.002c-0.01,0.024-0.021,0.047-0.032,0.07c-0.524,1.077-1.017,2.171-1.481,3.282
				C666.954,170.09,556.665,153.043,556.665,153.043s88.562,86.126,216.327,86.126c21.876,0,39.61-17.734,39.61-39.61
				s-17.734-39.61-39.61-39.61c-3.635,0-7.151,0.499-10.495,1.416c57.304-30.301,74.009-60.277,74.009-60.277l-0.01-0.005
				C842.974,91.18,846.753,79.351,846.753,66.635z"/>
			<path style="fill:none;stroke:#3B3F3D;stroke-width:7.2;stroke-linecap:round;stroke-linejoin:round;stroke-miterlimit:10;" d="
				M628.586,202.421c37.145,19.233,86.789,36.748,144.406,36.748c21.876,0,39.61-17.734,39.61-39.61s-17.734-39.61-39.61-39.61
				c-3.635,0-7.151,0.499-10.495,1.416c57.304-30.301,74.009-60.277,74.009-60.277l-0.01-0.005
				c6.477-9.904,10.256-21.732,10.256-34.449c0-34.813-28.221-63.035-63.035-63.035c-24.908,0-46.435,14.45-56.673,35.421
				l-0.003-0.002"/>
		</g>
	</g>
	<g class="shirt">
		<g>
			<defs>
				<path id="SVGID_2_" d="M540.176,1015.685c0,0-168.807,273.064-174.759,560.266c0,0,35.212,11.829,108.501,20.376 c0,0-13.495-281.052,66.258-531.294V1015.685z"/>
			</defs>
			<clipPath id="SVGID_3_">
				<use xlink:href="#SVGID_2_"  style="overflow:visible;"/>
			</clipPath>
			<g style="clip-path:url(#SVGID_3_);">
				<path style="fill:none;stroke:#E4603C;stroke-width:7.2;stroke-linecap:round;stroke-miterlimit:10;" d="M433.161,1604.437 c0,0,5.951-217.072,45.436-383.433"/>
				<path style="fill:none;stroke:#E4603C;stroke-width:7.2;stroke-linecap:round;stroke-miterlimit:10;" d="M397.699,1543.793 c0,0,10.883-122.693,32.592-187.279"/>
				<path style="fill:none;stroke:#E4603C;stroke-width:7.2;stroke-linecap:round;stroke-miterlimit:10;" d="M397.699,1418.261 c0,0,44.079,7.446,70.8,10.926"/>
				<path style="fill:none;stroke:#E4603C;stroke-width:7.2;stroke-linecap:round;stroke-miterlimit:10;" d="M383.293,1485.86 c0,0,45.436,8.865,77.019,12.19"/>
			</g>
		</g>
		<g>
			<defs>
				<path id="SVGID_4_" d="M641.444,1015.685c0,0,168.807,273.064,174.759,560.266c0,0-35.212,11.829-108.501,20.376 c0,0,13.495-281.052-66.258-531.294V1015.685z"/>
			</defs>
			<clipPath id="SVGID_5_">
				<use xlink:href="#SVGID_4_"  style="overflow:visible;"/>
			</clipPath>
			<g style="clip-path:url(#SVGID_5_);">
				<path style="fill:none;stroke:#E4603C;stroke-width:7.2;stroke-linecap:round;stroke-miterlimit:10;" d="M700.764,1183.529 c0,0,82.675,236.836,78.985,427.09"/>
				<path style="fill:none;stroke:#E4603C;stroke-width:7.2;stroke-linecap:round;stroke-miterlimit:10;" d="M734.296,1406.239 c0,0,17.061,143.007,6.355,217.188"/>
				<path style="fill:none;stroke:#E4603C;stroke-width:7.2;stroke-linecap:round;stroke-miterlimit:10;" d="M726.532,1529.211 c0,0,47.867-5.665,74.602-20.605"/>
				<path style="fill:none;stroke:#E4603C;stroke-width:7.2;stroke-linecap:round;stroke-miterlimit:10;" d="M720.929,1448.845 c0,0,44.034-7.863,68.41-19.658"/>
			</g>
		</g>
		<path style="fill:#DC3B26;" d="M641.444,1015.685c0,0,168.807,273.064,174.759,560.266c0,0-35.212,11.829-108.501,20.376 c0,0,13.495-281.052-66.258-531.294V1015.685z"/>
		<path style="fill:#DC3A26;" d="M540.176,1015.685c0,0-168.807,273.064-174.759,560.266c0,0,35.212,11.829,108.501,20.376 c0,0-13.495-281.052,66.258-531.294V1015.685z"/>
		<circle style="fill:#36819F;" cx="589.234" cy="1227.018" r="44.045"/>
		<g class="ring">
			<defs>
				<filter id="Adobe_OpacityMaskFilter" filterUnits="userSpaceOnUse" x="528.517" y="1179.929" width="118.13" height="94.178">
					<feFlood  style="flood-color:white;flood-opacity:1" result="back"/>
					<feBlend  in="SourceGraphic" in2="back" mode="normal"/>
				</filter>
			</defs>
			<mask maskUnits="userSpaceOnUse" x="528.517" y="1179.929" width="118.13" height="94.178" id="SVGID_1_">
				<g style="filter:url(#Adobe_OpacityMaskFilter);">
					<path style="fill:#010101;" d="M589.234,1182.973c-24.325,0-44.045,19.719-44.045,44.045c0,10.164,3.444,19.521,9.227,26.975 l69.902-53.602C616.274,1189.808,603.553,1182.973,589.234,1182.973z"/>
				</g>
			</mask>
		</g>
	</g>
	<path style="mask:url(#SVGID_1_);fill:none;stroke:#3B3F3D;stroke-width:7.2;stroke-linecap:round;stroke-miterlimit:10;" d=" M611.303,1195.423c16.293-9.704,28.507-14.213,31.199-10.719c4.255,5.522-16.885,28.943-47.217,52.313 c-30.332,23.369-58.37,37.837-62.624,32.315c-2.535-3.29,3.943-12.931,16.006-25.13"/>
</svg>
